<?xml version="1.0" encoding="utf-8"?>
<!-- Generator: Adobe Illustrator 16.0.0, SVG Export Plug-In . SVG Version: 6.00 Build 0)  -->
<!DOCTYPE svg PUBLIC "-//W3C//DTD SVG 1.1//EN" "http://www.w3.org/Graphics/SVG/1.1/DTD/svg11.dtd">
<svg version="1.1" id="Layer_1" xmlns="http://www.w3.org/2000/svg" xmlns:xlink="http://www.w3.org/1999/xlink" x="0px" y="0px"
	 width="500px" height="540px" viewBox="0 0 500 540" enable-background="new 0 0 500 540" xml:space="preserve">
<g>
	<circle fill="#2444AE" cx="249.832" cy="264.946" r="228.186"/>
	<path fill="#FFFFFF" stroke="#C88D00" stroke-width="10.1135" stroke-miterlimit="10" d="M340.156,474.162
		c0,0-9.483-22.756-42.984-15.171c-33.5,7.587-46.143,12.011-76.167,1.58c0,0-36.346-13.906-43.299,20.228
		c-6.953,34.134,37.61,39.506,37.61,39.506s55.94,9.799,111.248-5.372C326.564,514.933,349.004,506.399,340.156,474.162z"/>
	<path fill="#FFFFFF" stroke="#C88D00" stroke-width="10.1135" stroke-miterlimit="10" d="M165.447,65.837
		c0,0,9.481,22.755,42.982,15.171c33.501-7.585,46.143-12.01,76.168-1.581c0,0,36.345,13.906,43.297-20.227
		c6.953-34.133-37.61-39.507-37.61-39.507s-55.939-9.796-111.248,5.374C179.037,25.067,156.598,33.6,165.447,65.837z"/>
	<path fill="#FFFFFF" stroke="#C88D00" stroke-width="9.5635" stroke-miterlimit="10" d="M463.14,306.386
		c0,0-23.959-3.743-32.086,26.123c-8.127,29.865-9.837,41.9-32.102,60.23c0,0-28.073,21.559-1.438,43.704
		c26.631,22.143,50.889-10.012,50.889-10.012s33.111-38.866,44.225-89.469C492.627,336.963,495.068,315.267,463.14,306.386z"/>
	<path fill="#FFFFFF" stroke="#C88D00" stroke-width="9.493" stroke-miterlimit="10" d="M388.606,104.257
		c0,0-14.921,19.1,7.097,40.177c22.017,21.078,31.649,28.209,36.747,56.186c0,0,5.084,34.544,37.309,21.743
		c32.226-12.798,16.073-48.992,16.073-48.992s-17.68-47.044-56.278-80.446C429.554,92.926,411.876,80.628,388.606,104.257z"/>
	<path fill="#FFFFFF" stroke="#C88D00" stroke-width="9.6944" stroke-miterlimit="10" d="M110.588,438.43
		c0,0,14.931-18.352-6.687-43.118s-31.096-33.401-35.909-63.444c0,0-4.743-36.952-36.751-27.263
		c-32.008,9.688-16.323,49.678-16.323,49.678s17.11,51.587,55.039,91.268C69.957,445.55,87.356,460.566,110.588,438.43z"/>
	<path fill="#FFFFFF" stroke="#C88D00" stroke-width="9.6168" stroke-miterlimit="10" d="M36.818,230.667
		c0,0,24.027,3.74,32.337-26.36c8.31-30.1,10.087-42.228,32.53-60.724c0,0,28.282-21.759,1.667-44.035
		c-26.615-22.275-51.128,10.151-51.128,10.151S18.794,148.902,7.379,199.9C7.379,199.9,4.818,221.761,36.818,230.667z"/>
	<polygon fill="#FFFFFF" stroke="#C88D00" stroke-width="4.4247" stroke-miterlimit="10" points="244.986,77.845 199.475,216.063 
		57.464,266.209 202.424,318.463 256.363,457.1 305.666,314.669 437.985,264.945 303.14,214.377 	"/>
	<path fill="#C88D00" d="M199.074,247.54v11.663h15.644v13.559h-15.644v27.591H183.24v-66.371h39.822v13.558H199.074z"/>
	<path fill="#C88D00" d="M243.194,300.353v-66.371h16.023v66.371H243.194z"/>
	<path fill="#C88D00" d="M297.742,247.54v11.663h15.646v13.559h-15.646v27.591h-15.833v-66.371h39.821v13.558H297.742z"/>
	<path fill="none" stroke="#C88D00" stroke-width="9.8286" stroke-linecap="round" stroke-miterlimit="10" d="M27.348,215.949
		c0,0-21.623,50.29,0.982,100.251"/>
	<path fill="none" stroke="#C88D00" stroke-width="9.8286" stroke-linecap="round" stroke-miterlimit="10" d="M174.076,49.236
		c0,0-53.868,9.737-83.044,56.171"/>
	<path fill="none" stroke="#C88D00" stroke-width="9.8286" stroke-linecap="round" stroke-miterlimit="10" d="M403.69,105.691
		c0,0-29.466-46.133-83.501-55.49"/>
	<path fill="none" stroke="#C88D00" stroke-width="10.4854" stroke-linecap="round" stroke-miterlimit="10" d="M465.809,324.788
		c0,0,24.633-56.005,5.075-113.99"/>
	<path fill="none" stroke="#C88D00" stroke-width="9.1229" stroke-linecap="round" stroke-miterlimit="10" d="M329.726,476.889
		c0,0,48.186-4.79,72.564-46.857"/>
	<path fill="none" stroke="#C88D00" stroke-width="9.8286" stroke-linecap="round" stroke-miterlimit="10" d="M98.453,434.017
		c0,0,32.787,43.837,87.365,49.186"/>
</g>
</svg>
